<?xml version="1.0" encoding="utf-8"?>
<!-- Generator: Adobe Illustrator 23.0.3, SVG Export Plug-In . SVG Version: 6.00 Build 0)  -->
<svg version="1.1" id="Layer_1" xmlns="http://www.w3.org/2000/svg" xmlns:xlink="http://www.w3.org/1999/xlink" x="0px" y="0px"
	 viewBox="0 0 129.6 50.1" style="enable-background:new 0 0 129.6 50.1;" xml:space="preserve">
<style type="text/css">
	.st0{fill:#F8883B;}
	.st1{fill-rule:evenodd;clip-rule:evenodd;fill:#0B9F8A;}
	.st2{fill-rule:evenodd;clip-rule:evenodd;fill:#84C1B0;}
	.st3{font-family:'BaskOldFace';}
	.st4{font-size:30px;}
</style>
<g id="Group_473" transform="translate(-132.429 -30.884)">
	<g id="Group_459" transform="translate(-456 -388.861)">
		<rect id="Rectangle_1518" x="667" y="441.9" class="st0" width="39" height="28"/>
		<g id="lef" transform="translate(588.429 419.745)">
			<g id="Group_457" transform="translate(0 0)">
				<path id="Path_391" class="st1" d="M16.8,13.4c-3.3,3.1-3.8,8.3-0.9,11.9c0.9,2,11.1,4.3,14.5,1.1c3.8-3.6,4.5-8.7,5.7-18.4
					C25.8,9.1,20.5,9.8,16.8,13.4z M26.4,19.2c-2.7,2.3-5.5,4.4-8.6,6.2c1.9-2.9,4-5.7,6.4-8.2c2.7-2.3,5.5-4.4,8.6-6.2
					C31,14,28.8,16.7,26.4,19.2L26.4,19.2z"/>
				<path id="Path_392" class="st2" d="M5.5,28.9c2.9,2.6,7.2,2.7,10.2,0.2c1.6-0.8,3.2-9.3,0.3-11.9c-3.2-2.9-7.6-3.3-16-3.8
					C1.4,21.7,2.2,26,5.5,28.9z M10,20.7c2.8,2.5,6.9,6.2,7,6.2c0,0-6.3-2.3-8.6-4.4c-2.1-2.1-4-4.3-5.6-6.7
					C5.3,17.2,7.8,18.9,10,20.7z"/>
			</g>
		</g>
		<text transform="matrix(1 0 0 1 605.963 469.861)" class="st3 st4">PlantMe</text>
	</g>
</g>
</svg>
