<svg xmlns="http://www.w3.org/2000/svg" width="129.571" height="50.116" viewBox="0 0 129.571 50.116">
  <g id="Group_473" data-name="Group 473" transform="translate(-132.429 -30.884)">
    <g id="Group_459" data-name="Group 459" transform="translate(-456 -388.861)">
      <rect id="Rectangle_1518" data-name="Rectangle 1518" width="39" height="28" transform="translate(667 434.861)" fill="#f8883b"/>
      <g id="lef" transform="translate(588.429 419.745)">
        <g id="Group_457" data-name="Group 457" transform="translate(0 0)">
          <path id="Path_391" data-name="Path 391" d="M6.3,5.41a8.881,8.881,0,0,0-.94,11.927c.864,1.967,11.138,4.3,14.528,1.063,3.753-3.586,4.529-8.661,5.662-18.4C15.354,1.082,10.047,1.824,6.3,5.41Zm9.671,5.834A53.911,53.911,0,0,1,7.381,17.4,51.769,51.769,0,0,1,13.82,9.19a53.894,53.894,0,0,1,8.585-6.154A51.788,51.788,0,0,1,15.966,11.244Z" transform="translate(10.456)" fill="#0b9f8a" fill-rule="evenodd"/>
          <path id="Path_392" data-name="Path 392" d="M2.3,4.637a7.868,7.868,0,0,0-.77,10.223c.708,1.686,9.126,3.687,11.9.911C16.508,12.7,17.144,8.347,18.072,0,9.722.927,5.374,1.563,2.3,4.637Zm7.924,5c-2.639,2.637-6.544,6.608-6.565,6.648s2.591-6.19,4.807-8.408A44.2,44.2,0,0,1,15.5,2.6,44.223,44.223,0,0,1,10.224,9.637Z" transform="translate(0.946 23.441) rotate(-93)" fill="#84c1b0" fill-rule="evenodd"/>
        </g>
      </g>
      <text id="PlantMe" transform="translate(595 435.861)" font-size="30" font-family="BaskOldFace, Baskerville Old Face"><tspan x="10.963" y="26">PlantMe</tspan></text>
    </g>
  </g>
</svg>
